<svg width="25" height="24" viewBox="0 0 25 24" fill="none" xmlns="http://www.w3.org/2000/svg">
<path d="M9.594 21.006C8.9652 20.972 8.37348 20.6978 7.941 20.24C7.4236 19.7423 6.96188 19.1897 6.564 18.592C5.94248 17.702 5.45119 16.7279 5.105 15.699C4.71321 14.5922 4.50709 13.4281 4.495 12.254C4.46456 11.102 4.74986 9.96356 5.32 8.96202C5.73758 8.24012 6.33319 7.63728 7.05 7.21102C7.75889 6.78659 8.56782 6.55813 9.394 6.54902C10.0168 6.58587 10.6289 6.72823 11.204 6.97002C11.663 7.17202 12.145 7.31402 12.64 7.39202C13.186 7.27764 13.7196 7.11018 14.233 6.89202C14.8407 6.65476 15.4841 6.52188 16.136 6.49902C16.223 6.49902 16.309 6.49902 16.392 6.50902C17.822 6.55002 19.152 7.25202 19.992 8.40902C19.3364 8.75965 18.7909 9.28521 18.4161 9.92728C18.0414 10.5693 17.852 11.3028 17.869 12.046C17.8625 12.6144 17.9765 13.1776 18.2035 13.6987C18.4305 14.2198 18.7653 14.6868 19.186 15.069C19.569 15.4338 20.0148 15.7262 20.502 15.932C20.402 16.232 20.287 16.522 20.165 16.814C19.888 17.4593 19.5463 18.0748 19.145 18.651C18.7656 19.2283 18.3239 19.7622 17.828 20.243C17.3756 20.6919 16.7726 20.9567 16.136 20.986C15.5964 20.9621 15.0662 20.8355 14.574 20.613C14.0432 20.3818 13.4728 20.2551 12.894 20.24C12.2989 20.2518 11.7116 20.3777 11.164 20.611C10.691 20.8244 10.1858 20.9572 9.669 21.004L9.594 21.006ZM12.744 6.49902C12.669 6.49902 12.594 6.49902 12.519 6.49002C12.5032 6.37099 12.4949 6.25109 12.494 6.13102C12.5267 5.13216 12.9171 4.17826 13.594 3.44302C13.9726 3.02048 14.4315 2.67749 14.944 2.43402C15.4216 2.18818 15.9435 2.04028 16.479 1.99902C16.494 2.13002 16.494 2.25802 16.494 2.38002C16.4799 3.36319 16.1105 4.30805 15.454 5.04002C15.1361 5.46624 14.7288 5.81772 14.2606 6.06977C13.7925 6.32182 13.2748 6.46833 12.744 6.49902Z" fill="white"/>
</svg>
