<svg width="20" height="20" viewBox="0 0 20 20" fill="none" xmlns="http://www.w3.org/2000/svg">
<path d="M10.0001 18.3332C14.6025 18.3332 18.3334 14.6022 18.3334 9.99984C18.3334 5.39746 14.6025 1.6665 10.0001 1.6665C5.39771 1.6665 1.66675 5.39746 1.66675 9.99984C1.66675 14.6022 5.39771 18.3332 10.0001 18.3332Z" stroke="white" stroke-width="1.5" stroke-linecap="round" stroke-linejoin="round"/>
<path d="M6.6748 12.0919C6.8248 12.3419 7.00813 12.5753 7.21647 12.7836C8.7498 14.317 11.2415 14.317 12.7831 12.7836C13.4081 12.1586 13.7665 11.3669 13.8831 10.5586" stroke="white" stroke-width="1.5" stroke-linecap="round" stroke-linejoin="round"/>
<path d="M6.11646 9.44193C6.23312 8.62526 6.59146 7.84189 7.21646 7.21689C8.74979 5.68356 11.2415 5.68356 12.7831 7.21689C12.9998 7.43356 13.1748 7.66691 13.3248 7.90858" stroke="white" stroke-width="1.5" stroke-linecap="round" stroke-linejoin="round"/>
<path d="M6.51685 14.3168V12.0918H8.74183" stroke="white" stroke-width="1.5" stroke-linecap="round" stroke-linejoin="round"/>
<path d="M13.483 5.68359V7.90858H11.2581" stroke="white" stroke-width="1.5" stroke-linecap="round" stroke-linejoin="round"/>
</svg>
