<svg width="25" height="24" viewBox="0 0 25 24" fill="none" xmlns="http://www.w3.org/2000/svg">
<path d="M12.875 22C18.3978 22 22.875 17.5228 22.875 12C22.875 6.47715 18.3978 2 12.875 2C7.35215 2 2.875 6.47715 2.875 12C2.875 17.5228 7.35215 22 12.875 22Z" stroke="#6B39F4" stroke-width="2" stroke-linecap="round" stroke-linejoin="round"/>
<path d="M8.88486 14.5101C9.06486 14.8101 9.28485 15.0901 9.53485 15.3401C11.3749 17.1801 14.3648 17.1801 16.2148 15.3401C16.9648 14.5901 17.3949 13.64 17.5349 12.67" stroke="#6B39F4" stroke-width="2" stroke-linecap="round" stroke-linejoin="round"/>
<path d="M8.21484 11.3301C8.35484 10.3501 8.78485 9.41003 9.53485 8.66003C11.3749 6.82003 14.3648 6.82003 16.2148 8.66003C16.4748 8.92003 16.6848 9.20005 16.8648 9.49005" stroke="#6B39F4" stroke-width="2" stroke-linecap="round" stroke-linejoin="round"/>
<path d="M8.69531 17.18V14.51H11.3653" stroke="#6B39F4" stroke-width="2" stroke-linecap="round" stroke-linejoin="round"/>
<path d="M17.0548 6.82007V9.49005H14.3849" stroke="#6B39F4" stroke-width="2" stroke-linecap="round" stroke-linejoin="round"/>
</svg>
