<svg width="23" height="12" viewBox="0 0 23 12" fill="none" xmlns="http://www.w3.org/2000/svg">
<path d="M13.4196 11.5002C13.4196 11.2339 13.6444 11.0176 13.9384 11.0176C14.2323 11.0176 14.4571 11.2339 14.4571 11.5002C14.4571 11.7665 14.2323 11.9995 13.9384 11.9995C13.6444 11.9995 13.4196 11.7832 13.4196 11.5002ZM13.5233 11.5002C13.5233 11.7166 13.7135 11.8997 13.9556 11.8997C14.1805 11.8997 14.3707 11.7333 14.3707 11.5002C14.3707 11.2839 14.1805 11.1174 13.9556 11.1174C13.6962 11.1174 13.5233 11.3005 13.5233 11.5002Z" fill="#E31837"/>
<path d="M14.1977 11.7836H14.0939L13.921 11.534H13.8172V11.7836H13.748V11.2344H14.0074C14.0593 11.2344 14.1112 11.2344 14.1458 11.2677C14.1977 11.2843 14.215 11.3342 14.215 11.3842C14.215 11.484 14.1285 11.534 14.0247 11.534L14.1977 11.7836ZM13.921 11.4674C14.0074 11.4674 14.1112 11.484 14.1112 11.3842C14.1112 11.3176 14.042 11.3009 13.9729 11.3009H13.8172V11.4674H13.921Z" fill="#E31837"/>
<path d="M11.4654 11.9997C15.097 9.00389 20.1985 6.09127 23 5.04273C22.5677 4.77643 21.8932 4.39363 21.1323 3.97754C17.518 5.12594 13.2985 7.67241 9.52856 10.5517C10.1684 11.0178 10.8429 11.5004 11.4654 11.9997Z" fill="#E31837"/>
<path d="M9.80523 3.8611C9.26914 3.61144 8.68117 3.37843 8.23155 3.17871C6.86538 3.82781 5.08418 4.80978 2.83606 6.35763C3.32027 6.60728 3.83907 6.90687 4.39245 7.20645C6.12177 5.97483 7.86839 4.80978 9.80523 3.8611Z" fill="#012169"/>
<path d="M13.0391 2.4296C12.382 2.08009 10.0993 1.26455 8.52559 0.915039C8.05867 1.08147 7.40153 1.33113 6.9519 1.51421C7.52258 1.664 9.64965 2.21324 11.4654 3.09534C11.9324 2.87898 12.5895 2.61268 13.0391 2.4296Z" fill="#E31837"/>
<path d="M5.30902 2.21289C3.28571 3.11164 1.15865 4.34326 0 5.05894C0.415038 5.24202 0.830075 5.39181 1.40075 5.65811C3.96015 3.99375 5.96617 2.97849 6.76165 2.64562C6.19098 2.4459 5.65489 2.31275 5.30902 2.21289Z" fill="#012169"/>
<path d="M14.5608 1.91401C15.0278 1.76422 15.5638 1.63107 16.0308 1.49792C14.6819 0.948682 12.9872 0.366158 11.4654 0C11.2232 0.0665742 10.4969 0.249653 9.99543 0.399445C10.5142 0.549237 12.2263 0.932039 14.5608 1.91401ZM6.03528 8.17198C6.58866 8.48821 7.17663 8.92094 7.74731 9.2871C11.5345 6.4577 15.2699 4.27739 19.3684 3.04577C18.7977 2.76283 18.2962 2.51318 17.6563 2.21359C15.2007 2.81276 10.9984 4.42718 6.03528 8.17198Z" fill="#E31837"/>
</svg>
