<svg width="20" height="20" viewBox="0 0 20 20" fill="none" xmlns="http://www.w3.org/2000/svg">
<path d="M6.66667 10H3.33333C2.8731 10 2.5 10.3731 2.5 10.8333V15.8333C2.5 16.2936 2.8731 16.6667 3.33333 16.6667H6.66667C7.1269 16.6667 7.5 16.2936 7.5 15.8333V10.8333C7.5 10.3731 7.1269 10 6.66667 10Z" stroke="white" stroke-width="1.5" stroke-linecap="round" stroke-linejoin="round"/>
<path d="M11.6667 6.6665H8.33333C7.8731 6.6665 7.5 7.0396 7.5 7.49984V15.8332C7.5 16.2934 7.8731 16.6665 8.33333 16.6665H11.6667C12.1269 16.6665 12.5 16.2934 12.5 15.8332V7.49984C12.5 7.0396 12.1269 6.6665 11.6667 6.6665Z" stroke="white" stroke-width="1.5" stroke-linecap="round" stroke-linejoin="round"/>
<path d="M16.6667 3.33325H13.3333C12.8731 3.33325 12.5 3.70635 12.5 4.16659V15.8333C12.5 16.2935 12.8731 16.6666 13.3333 16.6666H16.6667C17.1269 16.6666 17.5 16.2935 17.5 15.8333V4.16659C17.5 3.70635 17.1269 3.33325 16.6667 3.33325Z" stroke="white" stroke-width="1.5" stroke-linecap="round" stroke-linejoin="round"/>
<path d="M3.33333 16.6665H15" stroke="white" stroke-width="1.5" stroke-linecap="round" stroke-linejoin="round"/>
</svg>
