<svg width="24" height="24" viewBox="0 0 24 24" fill="none" xmlns="http://www.w3.org/2000/svg">
<g clip-path="url(#clip0_2970_13313)">
<path d="M12 24C18.6274 24 24 18.6274 24 12C24 5.37258 18.6274 0 12 0C5.37258 0 0 5.37258 0 12C0 18.6274 5.37258 24 12 24Z" fill="#F0F0F0"/>
<path d="M24 12C24 7.24242 21.2314 3.13167 17.2174 1.19067V22.8092C21.2314 20.8682 24 16.7575 24 12Z" fill="#D80027"/>
<path d="M0 12C0 16.7575 2.76867 20.8682 6.78263 22.8092V1.19067C2.76867 3.13167 0 7.24242 0 12Z" fill="#D80027"/>
<path d="M14.0869 13.5652L16.1738 12.5217L15.1304 12V10.9565L13.0434 12L14.0869 9.91298H13.0434L11.9999 8.34778L10.9565 9.91298H9.91297L10.9565 12L8.86949 10.9565V12L7.82605 12.5217L9.91297 13.5652L9.39125 14.6086H11.4782V16.1738H12.5217V14.6086H14.6086L14.0869 13.5652Z" fill="#D80027"/>
</g>
<defs>
<clipPath id="clip0_2970_13313">
<rect width="24" height="24" fill="white"/>
</clipPath>
</defs>
</svg>
