<svg width="26" height="26" viewBox="0 0 26 26" fill="none" xmlns="http://www.w3.org/2000/svg">
<g clip-path="url(#clip0_2970_10799)">
<path d="M13 26C20.1797 26 26 20.1797 26 13C26 5.8203 20.1797 0 13 0C5.8203 0 0 5.8203 0 13C0 20.1797 5.8203 26 13 26Z" fill="#D80027"/>
<path d="M7.11445 7.91211L8.23672 11.3652H11.8676L8.93242 13.5031L10.0547 16.9562L7.11445 14.8234L4.17422 16.9562L5.30156 13.5031L2.36133 11.3652H5.99219L7.11445 7.91211Z" fill="#FFDA44"/>
<path d="M15.4121 20.135L14.5539 19.0787L13.2844 19.5713L14.0207 18.4287L13.1625 17.3674L14.4777 17.7178L15.2191 16.5752L15.2902 17.9361L16.6105 18.2865L15.3359 18.774L15.4121 20.135Z" fill="#FFDA44"/>
<path d="M17.1183 17.0373L17.5246 15.7373L16.4125 14.9502L17.7734 14.9299L18.1746 13.6299L18.6164 14.9197L19.9773 14.9045L18.8855 15.717L19.3222 17.0068L18.2101 16.2197L17.1183 17.0373Z" fill="#FFDA44"/>
<path d="M19.4188 9.54189L18.8196 10.7657L19.7946 11.7153L18.4489 11.5224L17.8496 12.7411L17.616 11.4005L16.2653 11.2075L17.4739 10.5728L17.2403 9.22705L18.2153 10.1767L19.4188 9.54189Z" fill="#FFDA44"/>
<path d="M15.4476 5.83496L15.346 7.19082L16.6105 7.70371L15.2851 8.02871L15.1886 9.38965L14.4726 8.23184L13.1472 8.55684L14.0257 7.51582L13.3046 6.36309L14.5691 6.87598L15.4476 5.83496Z" fill="#FFDA44"/>
</g>
<defs>
<clipPath id="clip0_2970_10799">
<rect width="26" height="26" fill="white"/>
</clipPath>
</defs>
</svg>
