<svg width="16" height="16" viewBox="0 0 16 16" fill="none" xmlns="http://www.w3.org/2000/svg">
<path d="M15.3333 10.6467C15.3333 13.2267 13.2466 15.3134 10.6666 15.3134L11.3666 14.1467" stroke="#F8F9FD" stroke-linecap="round" stroke-linejoin="round"/>
<path d="M0.666626 5.31339C0.666626 2.7334 2.75329 0.646729 5.33329 0.646729L4.63329 1.8134" stroke="#F8F9FD" stroke-linecap="round" stroke-linejoin="round"/>
<path d="M4.41333 8.71338H6.28666C6.7 8.71338 7.04 9.08672 7.04 9.46672C7.04 9.88005 6.70666 10.2201 6.28666 10.2201H4.41333V8.71338Z" stroke="#F8F9FD" stroke-miterlimit="10" stroke-linecap="round" stroke-linejoin="round"/>
<path d="M4.41333 10.2202H6.56C7.03333 10.2202 7.42 10.5536 7.42 10.9736C7.42 11.3869 7.03333 11.7269 6.56 11.7269H4.41333V10.2202Z" stroke="#F8F9FD" stroke-miterlimit="10" stroke-linecap="round" stroke-linejoin="round"/>
<path d="M5.61328 11.7202V12.4669" stroke="#F8F9FD" stroke-miterlimit="10" stroke-linecap="round" stroke-linejoin="round"/>
<path d="M5.61328 7.9668V8.71346" stroke="#F8F9FD" stroke-miterlimit="10" stroke-linecap="round" stroke-linejoin="round"/>
<path d="M9.90001 10.2201C9.90001 12.4934 8.06001 14.3334 5.78667 14.3334C3.51334 14.3334 1.67334 12.4934 1.67334 10.2201C1.67334 7.94672 3.51334 6.10669 5.78667 6.10669C5.89334 6.10669 5.99334 6.11337 6.10667 6.12004C8.12667 6.27337 9.74001 7.8867 9.89334 9.9067C9.89334 10.0067 9.90001 10.1067 9.90001 10.2201Z" stroke="#F8F9FD" stroke-miterlimit="10" stroke-linecap="round" stroke-linejoin="round"/>
<path d="M14.3334 5.78007C14.3334 8.0534 12.4934 9.89343 10.22 9.89343H9.89336C9.74002 7.87343 8.12669 6.26006 6.10669 6.10673V5.78007C6.10669 3.50674 7.94669 1.66675 10.22 1.66675C12.4934 1.66675 14.3334 3.50674 14.3334 5.78007Z" stroke="#F8F9FD" stroke-miterlimit="10" stroke-linecap="round" stroke-linejoin="round"/>
</svg>
