<svg width="25" height="24" viewBox="0 0 25 24" fill="none" xmlns="http://www.w3.org/2000/svg">
<path d="M23.25 15.97C23.25 19.84 20.12 22.97 16.25 22.97L17.3 21.22" stroke="#6B39F4" stroke-width="1.5" stroke-linecap="round" stroke-linejoin="round"/>
<path d="M1.25 7.96997C1.25 4.09997 4.38 0.969971 8.25 0.969971L7.2 2.71997" stroke="#6B39F4" stroke-width="1.5" stroke-linecap="round" stroke-linejoin="round"/>
<path d="M6.87012 13.0698H9.68012C10.3001 13.0698 10.8101 13.6298 10.8101 14.1998C10.8101 14.8198 10.3101 15.3298 9.68012 15.3298H6.87012V13.0698Z" stroke="#6B39F4" stroke-width="1.5" stroke-miterlimit="10" stroke-linecap="round" stroke-linejoin="round"/>
<path d="M6.87012 15.3301H10.0901C10.8001 15.3301 11.3801 15.8301 11.3801 16.4601C11.3801 17.0801 10.8001 17.5901 10.0901 17.5901H6.87012V15.3301Z" stroke="#6B39F4" stroke-width="1.5" stroke-miterlimit="10" stroke-linecap="round" stroke-linejoin="round"/>
<path d="M8.67017 17.5801V18.7001" stroke="#6B39F4" stroke-width="1.5" stroke-miterlimit="10" stroke-linecap="round" stroke-linejoin="round"/>
<path d="M8.67017 11.95V13.0699" stroke="#6B39F4" stroke-width="1.5" stroke-miterlimit="10" stroke-linecap="round" stroke-linejoin="round"/>
<path d="M15.1 15.33C15.1 18.74 12.34 21.4999 8.93001 21.4999C5.52001 21.4999 2.76001 18.74 2.76001 15.33C2.76001 11.92 5.52001 9.15991 8.93001 9.15991C9.09001 9.15991 9.24001 9.16993 9.41001 9.17993C12.44 9.40993 14.86 11.8299 15.09 14.8599C15.09 15.0099 15.1 15.16 15.1 15.33Z" stroke="#6B39F4" stroke-width="1.5" stroke-miterlimit="10" stroke-linecap="round" stroke-linejoin="round"/>
<path d="M21.7499 8.66998C21.7499 12.08 18.9899 14.84 15.5799 14.84H15.0899C14.8599 11.81 12.4399 9.38997 9.40991 9.15997V8.66998C9.40991 5.25998 12.1699 2.5 15.5799 2.5C18.9899 2.5 21.7499 5.25998 21.7499 8.66998Z" stroke="#6B39F4" stroke-width="1.5" stroke-miterlimit="10" stroke-linecap="round" stroke-linejoin="round"/>
</svg>
