<svg width="20" height="20" viewBox="0 0 20 20" fill="none" xmlns="http://www.w3.org/2000/svg">
<path d="M13.3333 1.6665H6.66667C3.75 1.6665 2.5 3.33317 2.5 5.83317V14.1665C2.5 16.6665 3.75 18.3332 6.66667 18.3332H13.3333C16.25 18.3332 17.5 16.6665 17.5 14.1665V5.83317C17.5 3.33317 16.25 1.6665 13.3333 1.6665ZM6.66667 10.2082H10C10.3417 10.2082 10.625 10.4915 10.625 10.8332C10.625 11.1748 10.3417 11.4582 10 11.4582H6.66667C6.325 11.4582 6.04167 11.1748 6.04167 10.8332C6.04167 10.4915 6.325 10.2082 6.66667 10.2082ZM13.3333 14.7915H6.66667C6.325 14.7915 6.04167 14.5082 6.04167 14.1665C6.04167 13.8248 6.325 13.5415 6.66667 13.5415H13.3333C13.675 13.5415 13.9583 13.8248 13.9583 14.1665C13.9583 14.5082 13.675 14.7915 13.3333 14.7915ZM15.4167 7.70817H13.75C12.4833 7.70817 11.4583 6.68317 11.4583 5.4165V3.74984C11.4583 3.40817 11.7417 3.12484 12.0833 3.12484C12.425 3.12484 12.7083 3.40817 12.7083 3.74984V5.4165C12.7083 5.9915 13.175 6.45817 13.75 6.45817H15.4167C15.7583 6.45817 16.0417 6.7415 16.0417 7.08317C16.0417 7.42484 15.7583 7.70817 15.4167 7.70817Z" fill="#6B39F4"/>
</svg>
