<svg width="20" height="16" viewBox="0 0 20 16" fill="none" xmlns="http://www.w3.org/2000/svg">
<g clip-path="url(#clip0_2969_10684)">
<path d="M16.9407 1.33443C15.6294 0.702852 14.242 0.254086 12.8154 0C12.6377 0.330693 12.4301 0.775477 12.2869 1.12933C10.7487 0.891256 9.22472 0.891256 7.71484 1.12933C7.57174 0.775558 7.35944 0.330693 7.18009 0C5.75207 0.254203 4.36354 0.704112 3.05155 1.33773C0.440774 5.39875 -0.266988 9.35879 0.0868541 13.2628C1.81849 14.5938 3.49662 15.4025 5.14648 15.9316C5.55651 15.3512 5.91897 14.7367 6.23011 14.0945C5.63774 13.8623 5.06667 13.5763 4.5237 13.2396C4.66659 13.1306 4.80611 13.017 4.94206 12.899C8.23224 14.4831 11.8072 14.4831 15.0582 12.899C15.1947 13.0162 15.3342 13.1298 15.4765 13.2396C14.9326 13.5771 14.3605 13.8638 13.7669 14.0962C14.0798 14.741 14.4417 15.3561 14.8506 15.9332C16.502 15.4041 18.1817 14.5955 19.9133 13.2628C20.3286 8.73713 19.2041 4.81335 16.9407 1.33435V1.33443ZM6.67839 10.8619C5.69068 10.8619 4.88067 9.91276 4.88067 8.75698C4.88067 7.60121 5.67341 6.65045 6.67839 6.65045C7.68344 6.65045 8.49337 7.59952 8.47611 8.75698C8.47767 9.91276 7.68344 10.8619 6.67839 10.8619ZM13.3218 10.8619C12.3341 10.8619 11.5241 9.91276 11.5241 8.75698C11.5241 7.60121 12.3168 6.65045 13.3218 6.65045C14.3268 6.65045 15.1368 7.59952 15.1195 8.75698C15.1195 9.91276 14.3268 10.8619 13.3218 10.8619Z" fill="#5865F2"/>
</g>
<defs>
<clipPath id="clip0_2969_10684">
<rect width="20" height="16" fill="white"/>
</clipPath>
</defs>
</svg>
