<svg width="20" height="20" viewBox="0 0 20 20" fill="none" xmlns="http://www.w3.org/2000/svg">
<path d="M10 17.5C14.1421 17.5 17.5 14.1421 17.5 10C17.5 5.85786 14.1421 2.5 10 2.5C5.85786 2.5 2.5 5.85786 2.5 10C2.5 14.1421 5.85786 17.5 10 17.5Z" stroke="white" stroke-width="1.5" stroke-linecap="round" stroke-linejoin="round"/>
<path d="M11.6988 6.87546C11.4346 6.72867 11.1354 6.6565 10.8333 6.66667H9.16667C8.72464 6.66667 8.30072 6.84226 7.98816 7.15482C7.6756 7.46738 7.5 7.89131 7.5 8.33333C7.5 8.77536 7.6756 9.19928 7.98816 9.51184C8.30072 9.8244 8.72464 10 9.16667 10H10H10.8333C11.2754 10 11.6993 10.1756 12.0118 10.4882C12.3244 10.8007 12.5 11.2246 12.5 11.6667C12.5 12.1087 12.3244 12.5326 12.0118 12.8452C11.6993 13.1577 11.2754 13.3333 10.8333 13.3333H9.16667C8.86458 13.3435 8.56541 13.2713 8.30118 13.1245M10 5V6.66667M10 13.3333V15" stroke="white" stroke-width="1.5" stroke-linecap="round" stroke-linejoin="round"/>
</svg>
