<svg width="29" height="28" viewBox="0 0 29 28" fill="none" xmlns="http://www.w3.org/2000/svg">
<path d="M16.8334 3.5V8.16667C16.8334 8.47609 16.9563 8.77283 17.1751 8.99162C17.3939 9.21042 17.6906 9.33333 18 9.33333H22.6667" stroke="#7A4DF5" stroke-width="2" stroke-linecap="round" stroke-linejoin="round"/>
<path d="M20.3334 24.5H8.66671C8.04787 24.5 7.45438 24.2542 7.01679 23.8166C6.57921 23.379 6.33337 22.7855 6.33337 22.1667V5.83333C6.33337 5.21449 6.57921 4.621 7.01679 4.18342C7.45438 3.74583 8.04787 3.5 8.66671 3.5H16.8334L22.6667 9.33333V22.1667C22.6667 22.7855 22.4209 23.379 21.9833 23.8166C21.5457 24.2542 20.9522 24.5 20.3334 24.5Z" stroke="#7A4DF5" stroke-width="2" stroke-linecap="round" stroke-linejoin="round"/>
<path d="M14.5 12.8333V19.8333" stroke="#7A4DF5" stroke-width="2" stroke-linecap="round" stroke-linejoin="round"/>
<path d="M11 16.3333L14.5 19.8333L18 16.3333" stroke="#7A4DF5" stroke-width="2" stroke-linecap="round" stroke-linejoin="round"/>
</svg>
