<svg width="28" height="28" viewBox="0 0 28 28" fill="none" xmlns="http://www.w3.org/2000/svg">
<path d="M18.6666 10.5C21.8883 10.5 24.5 8.933 24.5 7C24.5 5.067 21.8883 3.5 18.6666 3.5C15.445 3.5 12.8333 5.067 12.8333 7C12.8333 8.933 15.445 10.5 18.6666 10.5Z" stroke="#6B39F4" stroke-width="2" stroke-linecap="round" stroke-linejoin="round"/>
<path d="M12.8333 7V11.6667C12.8333 13.5998 15.4455 15.1667 18.6666 15.1667C21.8878 15.1667 24.5 13.5998 24.5 11.6667V7" stroke="#6B39F4" stroke-width="2" stroke-linecap="round" stroke-linejoin="round"/>
<path d="M12.8333 11.6667V16.3334C12.8333 18.2666 15.4455 19.8334 18.6666 19.8334C21.8878 19.8334 24.5 18.2666 24.5 16.3334V11.6667" stroke="#6B39F4" stroke-width="2" stroke-linecap="round" stroke-linejoin="round"/>
<path d="M12.8333 16.3333V20.9999C12.8333 22.9331 15.4455 24.4999 18.6667 24.4999C21.8878 24.4999 24.5 22.9331 24.5 20.9999V16.3333M8.16667 10.4999H5.25C4.78587 10.4999 4.34075 10.6843 4.01256 11.0125C3.68437 11.3407 3.5 11.7858 3.5 12.2499C3.5 12.714 3.68437 13.1592 4.01256 13.4874C4.34075 13.8155 4.78587 13.9999 5.25 13.9999H6.41667C6.8808 13.9999 7.32591 14.1843 7.6541 14.5125C7.98229 14.8407 8.16667 15.2858 8.16667 15.7499C8.16667 16.214 7.98229 16.6592 7.6541 16.9874C7.32591 17.3155 6.8808 17.4999 6.41667 17.4999H3.5M5.83333 17.4999V18.6666M5.83333 9.33325V10.4999" stroke="#6B39F4" stroke-width="2" stroke-linecap="round" stroke-linejoin="round"/>
</svg>
