<svg width="25" height="24" viewBox="0 0 25 24" fill="none" xmlns="http://www.w3.org/2000/svg">
<path d="M4.66626 8V6C4.66626 5.46957 4.87697 4.96086 5.25205 4.58579C5.62712 4.21071 6.13583 4 6.66626 4H8.66626M4.66626 16V18C4.66626 18.5304 4.87697 19.0391 5.25205 19.4142C5.62712 19.7893 6.13583 20 6.66626 20H8.66626M16.6663 4H18.6663C19.1967 4 19.7054 4.21071 20.0805 4.58579C20.4555 4.96086 20.6663 5.46957 20.6663 6V8M16.6663 20H18.6663C19.1967 20 19.7054 19.7893 20.0805 19.4142C20.4555 19.0391 20.6663 18.5304 20.6663 18V16M9.26926 9.61C9.45916 9.41649 9.68574 9.26278 9.93573 9.15785C10.1857 9.05291 10.4541 8.99887 10.7253 8.99887C10.9964 8.99887 11.2648 9.05291 11.5148 9.15785C11.7648 9.26278 11.9914 9.41649 12.1813 9.61L12.6663 10L13.1663 9.604C13.356 9.41262 13.5819 9.26083 13.8308 9.15747C14.0797 9.0541 14.3467 9.00121 14.6162 9.00186C14.8857 9.00251 15.1524 9.05669 15.4009 9.16126C15.6493 9.26583 15.8744 9.4187 16.0633 9.611C16.4498 10.0044 16.6664 10.5339 16.6664 11.0855C16.6664 11.6371 16.4498 12.1666 16.0633 12.56L12.6663 16L9.26926 12.56C8.88243 12.1665 8.66566 11.6368 8.66566 11.085C8.66566 10.5332 8.88243 10.0035 9.26926 9.61V9.61Z" stroke="#6B39F4" stroke-width="2" stroke-linecap="round" stroke-linejoin="round"/>
</svg>
