<svg width="20" height="20" viewBox="0 0 20 20" fill="none" xmlns="http://www.w3.org/2000/svg">
<path d="M1.26172 10C1.26172 5.17444 5.17444 1.26172 10 1.26172C14.8256 1.26172 18.7383 5.17444 18.7383 10C18.7383 14.8256 14.8256 18.7383 10 18.7383C5.17444 18.7383 1.26172 14.8256 1.26172 10ZM2.72266 10C2.72266 14.0182 5.98181 17.2773 10 17.2773C14.0182 17.2773 17.2773 14.0182 17.2773 10C17.2773 5.98181 14.0182 2.72266 10 2.72266C5.98181 2.72266 2.72266 5.98181 2.72266 10Z" fill="#64748B" stroke="#64748B" stroke-width="0.0234375"/>
<path d="M12.172 6.19436L12.172 6.19437C12.779 6.72549 13.1133 7.43913 13.1113 8.2031V8.20312C13.1113 9.32662 12.3707 10.3382 11.2224 10.7801L11.2223 10.7801C11.0433 10.8492 10.8892 10.9707 10.7802 11.1288C10.6712 11.2868 10.6124 11.474 10.6113 11.666V11.666V12.1094C10.6113 12.1888 10.5463 12.2539 10.4668 12.2539H9.5293C9.44983 12.2539 9.38477 12.1888 9.38477 12.1094V11.6895C9.38477 11.2406 9.51691 10.7976 9.77135 10.4286C10.022 10.0672 10.3716 9.79135 10.7835 9.63399L10.7835 9.63399C11.453 9.37678 11.8867 8.8164 11.8867 8.20312C11.8867 7.33341 11.0376 6.62891 10 6.62891C8.96242 6.62891 8.11328 7.33341 8.11328 8.20312V8.35156C8.11328 8.43103 8.04822 8.49609 7.96875 8.49609H7.03125C6.95178 8.49609 6.88672 8.43103 6.88672 8.35156V8.20312C6.88672 7.43913 7.22104 6.72548 7.82803 6.19437C8.41172 5.68461 9.18238 5.40234 10 5.40234C10.8176 5.40234 11.5883 5.68267 12.172 6.19436ZM11.2266 10.791C12.3789 10.3477 13.123 9.33203 13.123 8.20312L9.76172 10.4219C9.50586 10.793 9.37305 11.2383 9.37305 11.6895V12.1094C9.37305 12.1953 9.44336 12.2656 9.5293 12.2656H10.4668C10.5527 12.2656 10.623 12.1953 10.623 12.1094V11.666C10.6241 11.4764 10.6822 11.2915 10.7898 11.1354C10.8975 10.9793 11.0497 10.8593 11.2266 10.791ZM9.45586 14.841C9.31154 14.6967 9.23047 14.501 9.23047 14.2969C9.23047 14.0928 9.31154 13.897 9.45586 13.7527C9.60017 13.6084 9.79591 13.5273 10 13.5273C10.2041 13.5273 10.3998 13.6084 10.5441 13.7527C10.6885 13.897 10.7695 14.0928 10.7695 14.2969C10.7695 14.501 10.6885 14.6967 10.5441 14.841C10.3998 14.9853 10.2041 15.0664 10 15.0664C9.79591 15.0664 9.60017 14.9853 9.45586 14.841Z" fill="#64748B" stroke="#64748B" stroke-width="0.0234375"/>
</svg>
