<svg width="25" height="24" viewBox="0 0 25 24" fill="none" xmlns="http://www.w3.org/2000/svg">
<path d="M19.875 8.70977L14.542 4.56177C14.074 4.19768 13.498 4 12.905 4C12.3121 4 11.736 4.19768 11.268 4.56177L5.93403 8.70977C5.61347 8.95905 5.35412 9.2783 5.17578 9.64312C4.99745 10.0079 4.90484 10.4087 4.90503 10.8148V18.0148C4.90503 18.5452 5.11574 19.0539 5.49082 19.429C5.86589 19.8041 6.3746 20.0148 6.90503 20.0148H18.905C19.4355 20.0148 19.9442 19.8041 20.3192 19.429C20.6943 19.0539 20.905 18.5452 20.905 18.0148V10.8148C20.905 9.99177 20.525 9.21477 19.875 8.70977Z" stroke="#94A3B8" stroke-width="1.5" stroke-linecap="round" stroke-linejoin="round"/>
<path d="M16.875 15C14.665 16.333 11.083 16.333 8.875 15" stroke="#94A3B8" stroke-width="1.5" stroke-linecap="round" stroke-linejoin="round"/>
</svg>
