<svg width="25" height="24" viewBox="0 0 25 24" fill="none" xmlns="http://www.w3.org/2000/svg">
<path d="M19.875 8.71001L14.542 4.56201C14.074 4.19792 13.498 4.00024 12.905 4.00024C12.3121 4.00024 11.736 4.19792 11.268 4.56201L5.93403 8.71001C5.61347 8.9593 5.35412 9.27854 5.17578 9.64336C4.99745 10.0082 4.90484 10.4089 4.90503 10.815V18.015C4.90503 18.5454 5.11574 19.0542 5.49082 19.4292C5.86589 19.8043 6.3746 20.015 6.90503 20.015H18.905C19.4355 20.015 19.9442 19.8043 20.3192 19.4292C20.6943 19.0542 20.905 18.5454 20.905 18.015V10.815C20.905 9.99201 20.525 9.21501 19.875 8.71001Z" stroke="#6B39F4" stroke-width="1.5" stroke-linecap="round" stroke-linejoin="round"/>
<path d="M16.875 15C14.665 16.333 11.083 16.333 8.875 15" stroke="#6B39F4" stroke-width="1.5" stroke-linecap="round" stroke-linejoin="round"/>
</svg>
