<svg width="18" height="18" viewBox="0 0 18 18" fill="none" xmlns="http://www.w3.org/2000/svg">
<path d="M12.75 15.75H5.25C2.25 15.75 1.5 15 1.5 12V6C1.5 3 2.25 2.25 5.25 2.25H12.75C15.75 2.25 16.5 3 16.5 6V12C16.5 15 15.75 15.75 12.75 15.75Z" stroke="#64748B" stroke-width="1.5" stroke-linecap="round" stroke-linejoin="round"/>
<path d="M10.5 6H14.25" stroke="#64748B" stroke-width="1.5" stroke-linecap="round" stroke-linejoin="round"/>
<path d="M11.25 9H14.25" stroke="#64748B" stroke-width="1.5" stroke-linecap="round" stroke-linejoin="round"/>
<path d="M12.75 12H14.25" stroke="#64748B" stroke-width="1.5" stroke-linecap="round" stroke-linejoin="round"/>
<path d="M6.37508 8.46793C7.1248 8.46793 7.73258 7.86016 7.73258 7.11043C7.73258 6.3607 7.1248 5.75293 6.37508 5.75293C5.62535 5.75293 5.01758 6.3607 5.01758 7.11043C5.01758 7.86016 5.62535 8.46793 6.37508 8.46793Z" stroke="#64748B" stroke-width="1.5" stroke-linecap="round" stroke-linejoin="round"/>
<path d="M9 12.2478C8.895 11.1603 8.0325 10.3053 6.945 10.2078C6.57 10.1703 6.1875 10.1703 5.805 10.2078C4.7175 10.3128 3.855 11.1603 3.75 12.2478" stroke="#64748B" stroke-width="1.5" stroke-linecap="round" stroke-linejoin="round"/>
</svg>
