<svg width="28" height="28" viewBox="0 0 28 28" fill="none" xmlns="http://www.w3.org/2000/svg">
<path d="M9.33331 15.1667H4.66665C3.37798 15.1667 2.33331 16.2114 2.33331 17.5001V22.1667C2.33331 23.4554 3.37798 24.5001 4.66665 24.5001H9.33331C10.622 24.5001 11.6666 23.4554 11.6666 22.1667V17.5001C11.6666 16.2114 10.622 15.1667 9.33331 15.1667Z" stroke="#6B39F4" stroke-width="2" stroke-linecap="round" stroke-linejoin="round"/>
<path d="M7 15.1667V18.6667" stroke="#6B39F4" stroke-width="2" stroke-linecap="round" stroke-linejoin="round"/>
<path d="M16.3333 3.5H11.6666C10.378 3.5 9.33331 4.54467 9.33331 5.83333V10.5C9.33331 11.7887 10.378 12.8333 11.6666 12.8333H16.3333C17.622 12.8333 18.6666 11.7887 18.6666 10.5V5.83333C18.6666 4.54467 17.622 3.5 16.3333 3.5Z" stroke="#6B39F4" stroke-width="2" stroke-linecap="round" stroke-linejoin="round"/>
<path d="M14 3.5V7" stroke="#6B39F4" stroke-width="2" stroke-linecap="round" stroke-linejoin="round"/>
<path d="M23.3333 15.1667H18.6666C17.378 15.1667 16.3333 16.2114 16.3333 17.5001V22.1667C16.3333 23.4554 17.378 24.5001 18.6666 24.5001H23.3333C24.622 24.5001 25.6666 23.4554 25.6666 22.1667V17.5001C25.6666 16.2114 24.622 15.1667 23.3333 15.1667Z" stroke="#6B39F4" stroke-width="2" stroke-linecap="round" stroke-linejoin="round"/>
<path d="M21 15.1667V18.6667" stroke="#6B39F4" stroke-width="2" stroke-linecap="round" stroke-linejoin="round"/>
</svg>
