<svg width="26" height="26" viewBox="0 0 26 26" fill="none" xmlns="http://www.w3.org/2000/svg">
<g clip-path="url(#clip0_2970_10794)">
<path d="M13 26C20.1797 26 26 20.1797 26 13C26 5.8203 20.1797 0 13 0C5.8203 0 0 5.8203 0 13C0 20.1797 5.8203 26 13 26Z" fill="#F0F0F0"/>
<path d="M26 13C26 7.41046 22.4721 2.6454 17.5217 0.808594V25.1915C22.4721 23.3546 26 18.5895 26 13Z" fill="#D80027"/>
<path d="M0 13C0 18.5895 3.52787 23.3546 8.47828 25.1914V0.808594C3.52787 2.6454 0 7.41046 0 13Z" fill="#6DA544"/>
</g>
<defs>
<clipPath id="clip0_2970_10794">
<rect width="26" height="26" fill="white"/>
</clipPath>
</defs>
</svg>
