<svg width="17" height="16" viewBox="0 0 17 16" fill="none" xmlns="http://www.w3.org/2000/svg">
<path d="M6.75002 2.66663H4.08335C3.71516 2.66663 3.41669 2.9651 3.41669 3.33329V5.99996C3.41669 6.36815 3.71516 6.66663 4.08335 6.66663H6.75002C7.11821 6.66663 7.41669 6.36815 7.41669 5.99996V3.33329C7.41669 2.9651 7.11821 2.66663 6.75002 2.66663Z" stroke="#F8F9FD" stroke-linecap="round" stroke-linejoin="round"/>
<path d="M13.4167 2.66663H10.75C10.3819 2.66663 10.0834 2.9651 10.0834 3.33329V5.99996C10.0834 6.36815 10.3819 6.66663 10.75 6.66663H13.4167C13.7849 6.66663 14.0834 6.36815 14.0834 5.99996V3.33329C14.0834 2.9651 13.7849 2.66663 13.4167 2.66663Z" stroke="#F8F9FD" stroke-linecap="round" stroke-linejoin="round"/>
<path d="M6.75002 9.33325H4.08335C3.71516 9.33325 3.41669 9.63173 3.41669 9.99992V12.6666C3.41669 13.0348 3.71516 13.3333 4.08335 13.3333H6.75002C7.11821 13.3333 7.41669 13.0348 7.41669 12.6666V9.99992C7.41669 9.63173 7.11821 9.33325 6.75002 9.33325Z" stroke="#F8F9FD" stroke-linecap="round" stroke-linejoin="round"/>
<path d="M13.4167 9.33325H10.75C10.3819 9.33325 10.0834 9.63173 10.0834 9.99992V12.6666C10.0834 13.0348 10.3819 13.3333 10.75 13.3333H13.4167C13.7849 13.3333 14.0834 13.0348 14.0834 12.6666V9.99992C14.0834 9.63173 13.7849 9.33325 13.4167 9.33325Z" stroke="#F8F9FD" stroke-linecap="round" stroke-linejoin="round"/>
</svg>
