<svg width="24" height="24" viewBox="0 0 24 24" fill="none" xmlns="http://www.w3.org/2000/svg">
<path d="M14.1666 9.1665H5.83329C4.91282 9.1665 4.16663 9.9127 4.16663 10.8332V15.8332C4.16663 16.7536 4.91282 17.4998 5.83329 17.4998H14.1666C15.0871 17.4998 15.8333 16.7536 15.8333 15.8332V10.8332C15.8333 9.9127 15.0871 9.1665 14.1666 9.1665Z" stroke="#94A3B8" stroke-width="1.5" stroke-linecap="round" stroke-linejoin="round"/>
<path d="M9.99996 14.1667C10.4602 14.1667 10.8333 13.7936 10.8333 13.3333C10.8333 12.8731 10.4602 12.5 9.99996 12.5C9.53972 12.5 9.16663 12.8731 9.16663 13.3333C9.16663 13.7936 9.53972 14.1667 9.99996 14.1667Z" stroke="#94A3B8" stroke-width="2" stroke-linecap="round" stroke-linejoin="round"/>
<path d="M6.66663 9.16667V5.83333C6.66663 4.94928 7.01782 4.10143 7.64294 3.47631C8.26806 2.85119 9.1159 2.5 9.99996 2.5C10.884 2.5 11.7319 2.85119 12.357 3.47631C12.9821 4.10143 13.3333 4.94928 13.3333 5.83333V9.16667" stroke="#94A3B8" stroke-width="1.5" stroke-linecap="round" stroke-linejoin="round"/>
</svg>
