<svg width="23" height="16" viewBox="0 0 23 16" fill="none" xmlns="http://www.w3.org/2000/svg">
<path d="M13.871 3.80664H9.11731V12.1928H13.871V3.80664Z" fill="#FF5F00"/>
<path d="M9.41887 8.00032C9.41812 7.19267 9.60455 6.39545 9.96405 5.66899C10.3235 4.94253 10.8467 4.30589 11.4939 3.80726C10.6924 3.18884 9.72991 2.80425 8.71633 2.69745C7.70275 2.59066 6.67902 2.76596 5.76213 3.20333C4.84525 3.6407 4.07221 4.32249 3.53137 5.17077C2.99054 6.01905 2.70374 6.99959 2.70374 8.00032C2.70374 9.00105 2.99054 9.98159 3.53137 10.8299C4.07221 11.6781 4.84525 12.3599 5.76213 12.7973C6.67902 13.2347 7.70275 13.41 8.71633 13.3032C9.72991 13.1964 10.6924 12.8118 11.4939 12.1934C10.8467 11.6947 10.3236 11.0581 9.96406 10.3316C9.60456 9.60518 9.41812 8.80796 9.41887 8.00032Z" fill="#EB001B"/>
<path d="M20.2838 8.00032C20.2838 9.00103 19.997 9.98157 19.4562 10.8298C18.9154 11.6781 18.1424 12.3599 17.2256 12.7973C16.3087 13.2347 15.285 13.41 14.2714 13.3032C13.2578 13.1964 12.2953 12.8118 11.4939 12.1934C12.1405 11.6942 12.6633 11.0575 13.0227 10.3311C13.3821 9.60481 13.5689 8.80783 13.5689 8.00032C13.5689 7.1928 13.3821 6.39582 13.0227 5.66948C12.6633 4.94314 12.1405 4.3064 11.4939 3.80726C12.2953 3.18883 13.2578 2.80425 14.2714 2.69745C15.285 2.59066 16.3087 2.76597 17.2256 3.20334C18.1424 3.64072 18.9154 4.32251 19.4562 5.17079C19.997 6.01906 20.2838 6.9996 20.2838 8.00032Z" fill="#F79E1B"/>
<path d="M19.7655 11.3056V11.134H19.836V11.099H19.6564V11.134H19.7269V11.3056H19.7655ZM20.1141 11.3056V11.0986H20.0591L19.9958 11.241L19.9324 11.0986H19.8773V11.3056H19.9162V11.1495L19.9756 11.2841H20.0159L20.0753 11.1492V11.3056H20.1141Z" fill="#F79E1B"/>
</svg>
