<svg width="20" height="20" viewBox="0 0 20 20" fill="none" xmlns="http://www.w3.org/2000/svg">
<path d="M16.6667 6.6665H3.33333C2.8731 6.6665 2.5 7.0396 2.5 7.49984V9.1665C2.5 9.62674 2.8731 9.99984 3.33333 9.99984H16.6667C17.1269 9.99984 17.5 9.62674 17.5 9.1665V7.49984C17.5 7.0396 17.1269 6.6665 16.6667 6.6665Z" stroke="white" stroke-width="1.5" stroke-linecap="round" stroke-linejoin="round"/>
<path d="M10.0001 6.66654V17.4999M15.8334 9.99988V15.8332C15.8334 16.2752 15.6578 16.6992 15.3453 17.0117C15.0327 17.3243 14.6088 17.4999 14.1667 17.4999H5.83341C5.39139 17.4999 4.96746 17.3243 4.6549 17.0117C4.34234 16.6992 4.16675 16.2752 4.16675 15.8332V9.99988M6.25008 6.66654C5.69755 6.66654 5.16764 6.44705 4.77694 6.05635C4.38624 5.66565 4.16675 5.13574 4.16675 4.58321C4.16675 4.03068 4.38624 3.50077 4.77694 3.11007C5.16764 2.71937 5.69755 2.49988 6.25008 2.49988C7.05399 2.48587 7.84177 2.87593 8.51069 3.61918C9.17962 4.36243 9.69864 5.42438 10.0001 6.66654C10.3015 5.42438 10.8205 4.36243 11.4895 3.61918C12.1584 2.87593 12.9462 2.48587 13.7501 2.49988C14.3026 2.49988 14.8325 2.71937 15.2232 3.11007C15.6139 3.50077 15.8334 4.03068 15.8334 4.58321C15.8334 5.13574 15.6139 5.66565 15.2232 6.05635C14.8325 6.44705 14.3026 6.66654 13.7501 6.66654" stroke="white" stroke-width="1.5" stroke-linecap="round" stroke-linejoin="round"/>
</svg>
