<svg width="16" height="16" viewBox="0 0 16 16" fill="none" xmlns="http://www.w3.org/2000/svg">
<path d="M11.3334 2.99967H13.8334C14.0544 2.99967 14.2663 3.08747 14.4226 3.24375C14.5789 3.40003 14.6667 3.61199 14.6667 3.83301V12.9997C14.6667 13.4417 14.4911 13.8656 14.1786 14.1782C13.866 14.4907 13.4421 14.6663 13 14.6663C12.558 14.6663 12.1341 14.4907 11.8215 14.1782C11.509 13.8656 11.3334 13.4417 11.3334 12.9997V2.16634C11.3334 1.94533 11.2456 1.73337 11.0893 1.57709C10.933 1.42081 10.7211 1.33301 10.5 1.33301H2.16671C1.94569 1.33301 1.73373 1.42081 1.57745 1.57709C1.42117 1.73337 1.33337 1.94533 1.33337 2.16634V12.1663C1.33337 12.8294 1.59677 13.4653 2.06561 13.9341C2.53445 14.4029 3.17033 14.6663 3.83337 14.6663H13M4.66671 4.66634H8.00004M4.66671 7.99967H8.00004M4.66671 11.333H8.00004" stroke="#64748B" stroke-width="1.5" stroke-linecap="round" stroke-linejoin="round"/>
</svg>
