<svg width="20" height="20" viewBox="0 0 20 20" fill="none" xmlns="http://www.w3.org/2000/svg">
<path d="M13.3334 4.99967H15.8334C16.0544 4.99967 16.2663 5.08747 16.4226 5.24375C16.5789 5.40003 16.6667 5.61199 16.6667 5.83301V14.9997C16.6667 15.4417 16.4911 15.8656 16.1786 16.1782C15.866 16.4907 15.4421 16.6663 15 16.6663C14.558 16.6663 14.1341 16.4907 13.8215 16.1782C13.509 15.8656 13.3334 15.4417 13.3334 14.9997V4.16634C13.3334 3.94533 13.2456 3.73337 13.0893 3.57709C12.933 3.42081 12.7211 3.33301 12.5 3.33301H4.16671C3.94569 3.33301 3.73373 3.42081 3.57745 3.57709C3.42117 3.73337 3.33337 3.94533 3.33337 4.16634V14.1663C3.33337 14.8294 3.59677 15.4653 4.06561 15.9341C4.53445 16.4029 5.17033 16.6663 5.83337 16.6663H15M6.66671 6.66634H10M6.66671 9.99967H10M6.66671 13.333H10" stroke="#94A3B8" stroke-width="1.5" stroke-linecap="round" stroke-linejoin="round"/>
</svg>
