<svg width="25" height="24" viewBox="0 0 25 24" fill="none" xmlns="http://www.w3.org/2000/svg">
<path d="M22.25 20.07V12.18C22.25 6.57999 17.75 2 12.25 2C6.75 2 2.25 6.57999 2.25 12.18V20.07C2.25 21.33 2.99998 21.67 3.91998 20.83L4.91998 19.92C5.28998 19.58 5.89001 19.58 6.26001 19.92L8.26001 21.75C8.63001 22.09 9.22998 22.09 9.59998 21.75L11.6 19.92C11.97 19.58 12.57 19.58 12.94 19.92L14.94 21.75C15.31 22.09 15.91 22.09 16.28 21.75L18.28 19.92C18.65 19.58 19.25 19.58 19.62 19.92L20.62 20.83C21.5 21.67 22.25 21.33 22.25 20.07Z" stroke="#6B39F4" stroke-width="1.5" stroke-linecap="round" stroke-linejoin="round"/>
<path d="M8.25 14C10.62 15.78 13.88 15.78 16.25 14" stroke="#6B39F4" stroke-width="1.5" stroke-linecap="round" stroke-linejoin="round"/>
<path d="M12.25 11C13.3546 11 14.25 10.1046 14.25 9C14.25 7.89543 13.3546 7 12.25 7C11.1454 7 10.25 7.89543 10.25 9C10.25 10.1046 11.1454 11 12.25 11Z" stroke="#6B39F4" stroke-width="1.5" stroke-linecap="round" stroke-linejoin="round"/>
</svg>
