<svg width="16" height="16" viewBox="0 0 16 16" fill="none" xmlns="http://www.w3.org/2000/svg">
<path d="M14.6667 13.3799V8.11991C14.6667 4.38658 11.6667 1.33325 8.00004 1.33325C4.33337 1.33325 1.33337 4.38658 1.33337 8.11991V13.3799C1.33337 14.2199 1.83336 14.4466 2.4467 13.8866L3.11336 13.2799C3.36003 13.0533 3.76005 13.0533 4.00671 13.2799L5.34005 14.4999C5.58671 14.7266 5.98669 14.7266 6.23336 14.4999L7.56669 13.2799C7.81336 13.0533 8.21338 13.0533 8.46004 13.2799L9.79338 14.4999C10.04 14.7266 10.4401 14.7266 10.6867 14.4999L12.0201 13.2799C12.2667 13.0533 12.6667 13.0533 12.9134 13.2799L13.58 13.8866C14.1667 14.4466 14.6667 14.2199 14.6667 13.3799Z" stroke="#F8F9FD" stroke-linecap="round" stroke-linejoin="round"/>
<path d="M5.33337 9.33325C6.91337 10.5199 9.08671 10.5199 10.6667 9.33325" stroke="#F8F9FD" stroke-linecap="round" stroke-linejoin="round"/>
<path d="M7.99996 7.33341C8.73634 7.33341 9.33329 6.73646 9.33329 6.00008C9.33329 5.2637 8.73634 4.66675 7.99996 4.66675C7.26358 4.66675 6.66663 5.2637 6.66663 6.00008C6.66663 6.73646 7.26358 7.33341 7.99996 7.33341Z" stroke="#F8F9FD" stroke-linecap="round" stroke-linejoin="round"/>
</svg>
