<svg width="16" height="16" viewBox="0 0 16 16" fill="none" xmlns="http://www.w3.org/2000/svg">
<path d="M14.6666 13.3802V8.12016C14.6666 4.38682 11.6666 1.3335 7.99998 1.3335C4.33331 1.3335 1.33331 4.38682 1.33331 8.12016V13.3802C1.33331 14.2202 1.8333 14.4468 2.44663 13.8868L3.1133 13.2802C3.35997 13.0535 3.75999 13.0535 4.00665 13.2802L5.33999 14.5002C5.58665 14.7268 5.98663 14.7268 6.2333 14.5002L7.56663 13.2802C7.8133 13.0535 8.21331 13.0535 8.45998 13.2802L9.79331 14.5002C10.04 14.7268 10.44 14.7268 10.6867 14.5002L12.02 13.2802C12.2667 13.0535 12.6666 13.0535 12.9133 13.2802L13.58 13.8868C14.1666 14.4468 14.6666 14.2202 14.6666 13.3802Z" stroke="#0F172A" stroke-linecap="round" stroke-linejoin="round"/>
<path d="M5.33331 9.3335C6.91331 10.5202 9.08665 10.5202 10.6666 9.3335" stroke="#0F172A" stroke-linecap="round" stroke-linejoin="round"/>
<path d="M8.00002 7.33317C8.7364 7.33317 9.33335 6.73622 9.33335 5.99984C9.33335 5.26346 8.7364 4.6665 8.00002 4.6665C7.26364 4.6665 6.66669 5.26346 6.66669 5.99984C6.66669 6.73622 7.26364 7.33317 8.00002 7.33317Z" stroke="#0F172A" stroke-linecap="round" stroke-linejoin="round"/>
</svg>
