<svg width="20" height="20" viewBox="0 0 20 20" fill="none" xmlns="http://www.w3.org/2000/svg">
<path d="M13.3333 3.5415C13.3333 4.57484 12.4917 5.4165 11.4583 5.4165H8.54166C8.02499 5.4165 7.55832 5.20817 7.21666 4.8665C6.87499 4.52484 6.66666 4.05817 6.66666 3.5415C6.66666 2.50817 7.50832 1.6665 8.54166 1.6665H11.4583C11.975 1.6665 12.4417 1.87484 12.7833 2.2165C13.125 2.55817 13.3333 3.02484 13.3333 3.5415Z" fill="#6B39F4"/>
<path d="M15.6917 4.19176C15.5 4.03342 15.2833 3.90842 15.05 3.81676C14.8083 3.72509 14.5667 3.91676 14.5167 4.16676C14.2333 5.59176 12.975 6.66676 11.4583 6.66676H8.54168C7.70834 6.66676 6.92501 6.34176 6.33334 5.75009C5.90001 5.31676 5.60001 4.76676 5.48334 4.17509C5.43334 3.92509 5.18334 3.72509 4.94168 3.82509C3.97501 4.21676 3.33334 5.10009 3.33334 6.87509V15.0001C3.33334 17.5001 4.82501 18.3334 6.66668 18.3334H13.3333C15.175 18.3334 16.6667 17.5001 16.6667 15.0001V6.87509C16.6667 5.51676 16.2917 4.68342 15.6917 4.19176ZM6.66668 10.2084H10C10.3417 10.2084 10.625 10.4918 10.625 10.8334C10.625 11.1751 10.3417 11.4584 10 11.4584H6.66668C6.32501 11.4584 6.04168 11.1751 6.04168 10.8334C6.04168 10.4918 6.32501 10.2084 6.66668 10.2084ZM13.3333 14.7918H6.66668C6.32501 14.7918 6.04168 14.5084 6.04168 14.1668C6.04168 13.8251 6.32501 13.5418 6.66668 13.5418H13.3333C13.675 13.5418 13.9583 13.8251 13.9583 14.1668C13.9583 14.5084 13.675 14.7918 13.3333 14.7918Z" fill="#6B39F4"/>
</svg>
