<svg width="14" height="16" viewBox="0 0 14 16" fill="none" xmlns="http://www.w3.org/2000/svg">
<g clip-path="url(#clip0_2952_11101)">
<path d="M11.875 1.24514C11.1132 0.40371 9.73607 0.0429688 7.97436 0.0429688H2.8614C2.6871 0.042975 2.51851 0.103236 2.38596 0.212917C2.2534 0.322598 2.16557 0.474505 2.13825 0.641326L0.00930882 13.7257C-0.0330076 13.9837 0.173162 14.2173 0.443025 14.2173H3.59959L4.39234 9.34469L4.36774 9.49727C4.42421 9.15285 4.72819 8.89881 5.08815 8.89881H6.58815C9.53488 8.89881 11.8422 7.73897 12.5162 4.38379C12.5362 4.28456 12.5536 4.18798 12.5685 4.09362C12.4835 4.04996 12.4835 4.04996 12.5685 4.09362C12.7692 2.85351 12.5672 2.00938 11.875 1.24514Z" fill="#27346A"/>
<path d="M5.60016 3.64689C5.68646 3.60707 5.78084 3.58644 5.87642 3.58649H9.88489C10.3596 3.58649 10.8023 3.61643 11.2069 3.67952C11.3201 3.69702 11.4327 3.7179 11.5446 3.74215C11.7031 3.77605 11.8599 3.81755 12.0142 3.86649C12.2131 3.93086 12.3983 4.00583 12.5686 4.09362C12.7692 2.85303 12.5672 2.00938 11.875 1.24514C11.1127 0.40371 9.73607 0.0429688 7.97436 0.0429688H2.86097C2.50095 0.0429688 2.19467 0.296955 2.13825 0.641326L0.00930912 13.7252C-0.0330073 13.9836 0.173162 14.217 0.442588 14.217H3.59959L5.2443 4.10994C5.26047 4.01059 5.30131 3.91654 5.3633 3.83588C5.42529 3.75522 5.50657 3.69036 5.60016 3.64689Z" fill="#27346A"/>
<path d="M12.5163 4.38392C11.8423 7.73862 9.535 8.89894 6.58822 8.89894H5.08779C4.72782 8.89894 4.42379 9.15298 4.36786 9.49741L3.38163 15.556C3.34478 15.7818 3.52498 15.9864 3.76072 15.9864H6.42163C6.57405 15.9863 6.72146 15.9336 6.83735 15.8376C6.95323 15.7417 7.02998 15.6088 7.05381 15.4629L7.07972 15.3315L7.58123 12.2515L7.61354 12.0812C7.63736 11.9354 7.71411 11.8025 7.82998 11.7066C7.94585 11.6106 8.09325 11.5579 8.24566 11.5578H8.6439C11.2215 11.5578 13.2399 10.543 13.8297 7.60813C14.0759 6.38164 13.9485 5.35764 13.2972 4.63839C13.0997 4.42053 12.8544 4.24061 12.5686 4.09375C12.5531 4.18858 12.5364 4.28469 12.5163 4.38392Z" fill="#2790C3"/>
<path d="M11.8633 3.82156C11.7582 3.79183 11.6521 3.7655 11.5452 3.74262C11.4332 3.71877 11.3206 3.69803 11.2075 3.68043C10.8025 3.6169 10.3601 3.58692 9.88495 3.58692H5.87697C5.78132 3.58671 5.68686 3.60752 5.60071 3.64779C5.50702 3.69113 5.42564 3.75595 5.36362 3.83663C5.30161 3.91732 5.26082 4.01144 5.24479 4.11084L4.39289 9.34517L4.36829 9.49775C4.42433 9.15333 4.7283 8.89929 5.08832 8.89929H6.58875C9.53548 8.89929 11.8428 7.73945 12.5168 4.38427C12.5368 4.28503 12.5537 4.18888 12.5691 4.09409C12.3985 4.00678 12.2137 3.93134 12.0148 3.86739C11.9646 3.85127 11.9141 3.83599 11.8633 3.82156" fill="#1F264F"/>
</g>
<defs>
<clipPath id="clip0_2952_11101">
<rect width="14" height="16" fill="white"/>
</clipPath>
</defs>
</svg>
