<svg width="25" height="24" viewBox="0 0 25 24" fill="none" xmlns="http://www.w3.org/2000/svg">
<path d="M10.375 3.19998C8.81067 3.56262 7.37188 4.33718 6.20784 5.44332C5.0438 6.54946 4.1969 7.94689 3.75499 9.49066C3.31308 11.0344 3.29225 12.6683 3.69465 14.2229C4.09706 15.7774 4.90805 17.196 6.04351 18.3314C7.17897 19.4669 8.59754 20.2779 10.1521 20.6803C11.7066 21.0827 13.3405 21.0619 14.8843 20.62C16.4281 20.178 17.8255 19.3311 18.9316 18.1671C20.0378 17.0031 20.8123 15.5643 21.175 14C21.175 13.7348 21.0696 13.4804 20.8821 13.2929C20.6945 13.1053 20.4402 13 20.175 13H13.375C12.8445 13 12.3358 12.7893 11.9607 12.4142C11.5857 12.0391 11.375 11.5304 11.375 11V3.99998C11.3625 3.88151 11.3267 3.76668 11.2696 3.66215C11.2124 3.55763 11.1351 3.46548 11.0421 3.39107C10.9491 3.31665 10.8422 3.26144 10.7277 3.22864C10.6132 3.19584 10.4933 3.1861 10.375 3.19998Z" stroke="#64748B" stroke-width="1.5" stroke-linecap="round" stroke-linejoin="round"/>
<path d="M15.375 3.5C16.6447 3.94708 17.798 4.6733 18.7498 5.62516C19.7017 6.57702 20.4279 7.73028 20.875 9H16.375C16.1098 9 15.8554 8.89464 15.6679 8.70711C15.4804 8.51957 15.375 8.26522 15.375 8V3.5Z" stroke="#64748B" stroke-width="1.5" stroke-linecap="round" stroke-linejoin="round"/>
</svg>
