<svg width="25" height="24" viewBox="0 0 25 24" fill="none" xmlns="http://www.w3.org/2000/svg">
<path d="M10.375 3.19998C8.81073 3.56262 7.37194 4.33718 6.2079 5.44332C5.04386 6.54946 4.19697 7.94689 3.75505 9.49066C3.31314 11.0344 3.29231 12.6683 3.69471 14.2229C4.09712 15.7774 4.90811 17.196 6.04357 18.3314C7.17903 19.4669 8.5976 20.2779 10.1521 20.6803C11.7067 21.0827 13.3406 21.0619 14.8843 20.62C16.4281 20.178 17.8256 19.3311 18.9317 18.1671C20.0378 17.0031 20.8124 15.5643 21.175 14C21.175 13.7348 21.0697 13.4804 20.8821 13.2929C20.6946 13.1053 20.4402 13 20.175 13H13.375C12.8446 13 12.3359 12.7893 11.9608 12.4142C11.5857 12.0391 11.375 11.5304 11.375 11V3.99998C11.3626 3.88151 11.3268 3.76668 11.2696 3.66215C11.2125 3.55763 11.1352 3.46548 11.0422 3.39107C10.9491 3.31665 10.8423 3.26144 10.7277 3.22864C10.6132 3.19584 10.4933 3.1861 10.375 3.19998Z" stroke="#6B39F4" stroke-width="1.5" stroke-linecap="round" stroke-linejoin="round"/>
<path d="M15.375 3.5C16.6447 3.94708 17.798 4.6733 18.7498 5.62516C19.7017 6.57702 20.4279 7.73028 20.875 9H16.375C16.1098 9 15.8554 8.89464 15.6679 8.70711C15.4804 8.51957 15.375 8.26522 15.375 8V3.5Z" stroke="#6B39F4" stroke-width="1.5" stroke-linecap="round" stroke-linejoin="round"/>
</svg>
