<svg width="20" height="20" viewBox="0 0 20 20" fill="none" xmlns="http://www.w3.org/2000/svg">
<path d="M14.1667 9.16699H5.83341C4.91294 9.16699 4.16675 9.91318 4.16675 10.8337V15.8337C4.16675 16.7541 4.91294 17.5003 5.83341 17.5003H14.1667C15.0872 17.5003 15.8334 16.7541 15.8334 15.8337V10.8337C15.8334 9.91318 15.0872 9.16699 14.1667 9.16699Z" stroke="#64748B" stroke-width="1.5" stroke-linecap="round" stroke-linejoin="round"/>
<path d="M10.0001 14.1667C10.4603 14.1667 10.8334 13.7936 10.8334 13.3333C10.8334 12.8731 10.4603 12.5 10.0001 12.5C9.53984 12.5 9.16675 12.8731 9.16675 13.3333C9.16675 13.7936 9.53984 14.1667 10.0001 14.1667Z" stroke="#64748B" stroke-width="1.5" stroke-linecap="round" stroke-linejoin="round"/>
<path d="M6.66675 9.16667V5.83333C6.66675 4.94928 7.01794 4.10143 7.64306 3.47631C8.26818 2.85119 9.11603 2.5 10.0001 2.5C10.8841 2.5 11.732 2.85119 12.3571 3.47631C12.9822 4.10143 13.3334 4.94928 13.3334 5.83333V9.16667" stroke="#64748B" stroke-width="1.5" stroke-linecap="round" stroke-linejoin="round"/>
</svg>
