<svg width="20" height="20" viewBox="0 0 20 20" fill="none" xmlns="http://www.w3.org/2000/svg">
<path d="M16.25 10.4163C16.25 9.26634 17.1833 8.33301 18.3333 8.33301V7.49967C18.3333 4.16634 17.5 3.33301 14.1667 3.33301H5.83333C2.5 3.33301 1.66666 4.16634 1.66666 7.49967V7.91634C2.81666 7.91634 3.75 8.84967 3.75 9.99967C3.75 11.1497 2.81666 12.083 1.66666 12.083V12.4997C1.66666 15.833 2.5 16.6663 5.83333 16.6663H14.1667C17.5 16.6663 18.3333 15.833 18.3333 12.4997C17.1833 12.4997 16.25 11.5663 16.25 10.4163Z" stroke="#64748B" stroke-width="1.5" stroke-linecap="round" stroke-linejoin="round"/>
<path d="M7.5 12.292L12.5 7.29199" stroke="#64748B" stroke-width="1.5" stroke-linecap="round" stroke-linejoin="round"/>
<path d="M12.4954 12.2917H12.5029" stroke="#64748B" stroke-width="2" stroke-linecap="round" stroke-linejoin="round"/>
<path d="M7.49543 7.70866H7.50291" stroke="#64748B" stroke-width="2" stroke-linecap="round" stroke-linejoin="round"/>
</svg>
