<svg width="16" height="18" viewBox="0 0 16 18" fill="none" xmlns="http://www.w3.org/2000/svg">
<path d="M4.66666 10.6667L2.99999 10.6667C2.55797 10.6667 2.13404 10.4911 1.82148 10.1785C1.50892 9.86595 1.33333 9.44203 1.33333 9L1.33333 3.16667C1.33333 2.72464 1.50892 2.30072 1.82148 1.98816C2.13404 1.67559 2.55797 1.5 2.99999 1.5L13 1.5C13.442 1.5 13.8659 1.6756 14.1785 1.98816C14.4911 2.30072 14.6667 2.72464 14.6667 3.16667L14.6667 9C14.6667 9.44203 14.4911 9.86595 14.1785 10.1785C13.8659 10.4911 13.442 10.6667 13 10.6667L11.3333 10.6667" stroke="white" stroke-width="1.5" stroke-linecap="round" stroke-linejoin="round"/>
<path d="M8 4.83325L8 16.4999L5.5 13.9999M10.5 13.9999L8 16.4999" stroke="white" stroke-width="1.5" stroke-linecap="round" stroke-linejoin="round"/>
</svg>
