<svg width="20" height="20" viewBox="0 0 20 20" fill="none" xmlns="http://www.w3.org/2000/svg">
<path d="M6.66667 8.33333L5 8.33333C4.55797 8.33333 4.13405 8.50893 3.82149 8.82149C3.50893 9.13405 3.33334 9.55797 3.33334 10L3.33334 15.8333C3.33334 16.2754 3.50893 16.6993 3.82149 17.0118C4.13405 17.3244 4.55798 17.5 5 17.5L15 17.5C15.442 17.5 15.866 17.3244 16.1785 17.0118C16.4911 16.6993 16.6667 16.2754 16.6667 15.8333L16.6667 10C16.6667 9.55797 16.4911 9.13405 16.1785 8.82149C15.866 8.50893 15.442 8.33333 15 8.33333L13.3333 8.33333" stroke="white" stroke-width="1.5" stroke-linecap="round" stroke-linejoin="round"/>
<path d="M10 14.1667L10 2.50008L7.5 5.00008M12.5 5.00008L10 2.50008" stroke="white" stroke-width="1.5" stroke-linecap="round" stroke-linejoin="round"/>
</svg>
