<svg width="48" height="48" viewBox="0 0 48 48" fill="none" xmlns="http://www.w3.org/2000/svg">
<path d="M14.8155 1.82688C17.7274 0.620846 20.8483 0 24 0V12C22.4241 12 20.8637 12.3104 19.4078 12.9135C17.9519 13.5165 16.629 14.4004 15.5147 15.5147C14.4004 16.629 13.5165 17.9519 12.9135 19.4078C12.3104 20.8637 12 22.4241 12 24H0C0 20.8483 0.620846 17.7274 1.82688 14.8155C3.03305 11.9037 4.80082 9.2581 7.02939 7.02939C9.2581 4.80082 11.9037 3.03305 14.8155 1.82688Z" fill="white"/>
<path d="M0 24C0 27.1517 0.620846 30.2726 1.82688 33.1845C3.03305 36.0963 4.80082 38.7419 7.02939 40.9706C9.2581 43.1992 11.9037 44.9669 14.8155 46.1731C17.7274 47.3792 20.8483 48 24 48C27.1517 48 30.2726 47.3792 33.1845 46.1731C36.0963 44.9669 38.7419 43.1992 40.9706 40.9706C43.1992 38.7419 44.9669 36.0963 46.1731 33.1845C47.3792 30.2726 48 27.1517 48 24H36C36 25.5759 35.6896 27.1363 35.0865 28.5922C34.4835 30.0481 33.5996 31.371 32.4853 32.4853C31.371 33.5996 30.0481 34.4835 28.5922 35.0865C27.1363 35.6896 25.5759 36 24 36C22.4241 36 20.8637 35.6896 19.4078 35.0865C17.9519 34.4835 16.629 33.5996 15.5147 32.4853C14.4004 31.371 13.5165 30.0481 12.9135 28.5922C12.3104 27.1363 12 25.5759 12 24H0Z" fill="white"/>
<path d="M24 16.3633C19.7826 16.3633 16.3636 19.7822 16.3636 23.9996H31.6364C31.6364 19.7822 28.2175 16.3633 24 16.3633Z" fill="white"/>
<path d="M24 31.6367C19.7826 31.6367 16.3636 28.2178 16.3636 24.0004H31.6364C31.6364 28.2178 28.2175 31.6367 24 31.6367Z" fill="white"/>
</svg>
