<svg width="16" height="16" viewBox="0 0 16 16" fill="none" xmlns="http://www.w3.org/2000/svg">
<path d="M4.66666 4H3.33332C2.96513 4 2.66666 4.29848 2.66666 4.66667V6.66667C2.66666 7.03486 2.96513 7.33333 3.33332 7.33333H4.66666C5.03485 7.33333 5.33332 7.03486 5.33332 6.66667V4.66667C5.33332 4.29848 5.03485 4 4.66666 4Z" stroke="white" stroke-width="1.5" stroke-linecap="round" stroke-linejoin="round"/>
<path d="M4 2.66675V4.00008M4 7.33341V13.3334" stroke="white" stroke-width="1.5" stroke-linecap="round" stroke-linejoin="round"/>
<path d="M8.66666 9.3335H7.33332C6.96513 9.3335 6.66666 9.63197 6.66666 10.0002V12.0002C6.66666 12.3684 6.96513 12.6668 7.33332 12.6668H8.66666C9.03485 12.6668 9.33332 12.3684 9.33332 12.0002V10.0002C9.33332 9.63197 9.03485 9.3335 8.66666 9.3335Z" stroke="white" stroke-width="1.5" stroke-linecap="round" stroke-linejoin="round"/>
<path d="M8 2.66675V9.33341M8 12.6667V13.3334" stroke="white" stroke-width="1.5" stroke-linecap="round" stroke-linejoin="round"/>
<path d="M12.6667 3.3335H11.3333C10.9651 3.3335 10.6667 3.63197 10.6667 4.00016V6.66683C10.6667 7.03502 10.9651 7.3335 11.3333 7.3335H12.6667C13.0348 7.3335 13.3333 7.03502 13.3333 6.66683V4.00016C13.3333 3.63197 13.0348 3.3335 12.6667 3.3335Z" stroke="white" stroke-width="1.5" stroke-linecap="round" stroke-linejoin="round"/>
<path d="M12 2.66675V3.33341M12 7.33341V13.3334" stroke="white" stroke-width="1.5" stroke-linecap="round" stroke-linejoin="round"/>
</svg>
