<svg width="28" height="28" viewBox="0 0 28 28" fill="none" xmlns="http://www.w3.org/2000/svg">
<path d="M21 5.83325H6.99998C6.35565 5.83325 5.83331 6.35559 5.83331 6.99992V20.9999C5.83331 21.6442 6.35565 22.1666 6.99998 22.1666H21C21.6443 22.1666 22.1666 21.6442 22.1666 20.9999V6.99992C22.1666 6.35559 21.6443 5.83325 21 5.83325Z" stroke="#6B39F4" stroke-width="2" stroke-linecap="round" stroke-linejoin="round"/>
<path d="M3.5 11.6667H5.83333M3.5 16.3333H5.83333M11.6667 3.5V5.83333M16.3333 3.5V5.83333M24.5 11.6667H22.1667M24.5 16.3333H22.1667M16.3333 24.5V22.1667M11.6667 24.5V22.1667M10.5 10.5H17.5V17.5H10.5V10.5Z" stroke="#6B39F4" stroke-width="2" stroke-linecap="round" stroke-linejoin="round"/>
</svg>
