<svg width="24" height="24" viewBox="0 0 24 24" fill="none" xmlns="http://www.w3.org/2000/svg">
<g clip-path="url(#clip0_2970_28087)">
<path d="M12 24C18.6274 24 24 18.6274 24 12C24 5.37258 18.6274 0 12 0C5.37258 0 0 5.37258 0 12C0 18.6274 5.37258 24 12 24Z" fill="#F0F0F0"/>
<path d="M12 8.86971H23.5866C23.2857 7.75343 22.8284 6.70151 22.2387 5.73926H12V8.86971Z" fill="#338AF3"/>
<path d="M4.53009 21.3912H19.4698C20.5649 20.5189 21.5041 19.4595 22.2386 18.2607H1.76123C2.49581 19.4594 3.435 20.5189 4.53009 21.3912Z" fill="#338AF3"/>
<path d="M12 0V2.60869H19.4699C17.42 0.976125 14.8242 0 12 0Z" fill="#338AF3"/>
<path d="M12 8.86971H23.5866C23.2857 7.75343 22.8284 6.70151 22.2387 5.73926H12V8.86971Z" fill="#338AF3"/>
<path d="M0 12C0 13.0831 0.144375 14.1323 0.413391 15.1305H23.5867C23.8556 14.1323 24 13.0831 24 12H0Z" fill="#338AF3"/>
<path d="M10.4348 7.02268L8.96916 7.71207L9.74958 9.13145L8.15818 8.82704L7.95652 10.4346L6.84812 9.25225L5.73962 10.4346L5.53801 8.82704L3.9466 9.13136L4.72697 7.71203L3.26147 7.02268L4.72702 6.33339L3.9466 4.91401L5.53796 5.21842L5.73966 3.61084L6.84812 4.79321L7.95657 3.61084L8.15818 5.21842L9.74963 4.91401L8.96921 6.33343L10.4348 7.02268Z" fill="#FFDA44"/>
</g>
<defs>
<clipPath id="clip0_2970_28087">
<rect width="24" height="24" fill="white"/>
</clipPath>
</defs>
</svg>
