<svg width="26" height="8" viewBox="0 0 26 8" fill="none" xmlns="http://www.w3.org/2000/svg">
<g clip-path="url(#clip0_1558_6555)">
<path d="M16.9308 0.0126953C15.0865 0.0126953 13.4384 0.918583 13.4384 2.59228C13.4384 4.51169 16.3614 4.64427 16.3614 5.60853C16.3614 6.01454 15.8704 6.37798 15.0318 6.37798C13.8417 6.37798 12.9522 5.87014 12.9522 5.87014L12.5716 7.55909C12.5716 7.55909 13.5963 7.98806 14.9567 7.98806C16.9731 7.98806 18.5597 7.03769 18.5597 5.33537C18.5597 3.30717 15.6245 3.17853 15.6245 2.28354C15.6245 1.96549 16.0276 1.617 16.8638 1.617C17.8072 1.617 18.577 1.98634 18.577 1.98634L18.9494 0.355101C18.9494 0.355101 18.1119 0.0126953 16.9308 0.0126953ZM0.0575962 0.135808L0.0129395 0.382032C0.0129395 0.382032 0.788821 0.5166 1.48763 0.785032C2.3874 1.09284 2.4515 1.27204 2.60303 1.8286L4.25432 7.8611H6.46787L9.87803 0.135808H7.66955L5.47832 5.38827L4.58417 0.936037C4.50217 0.426482 4.0868 0.135808 3.57838 0.135808H0.0575962ZM10.7661 0.135808L9.03361 7.8611H11.1396L12.866 0.135808H10.7661ZM22.5118 0.135808C22.004 0.135808 21.7349 0.393461 21.5375 0.843703L18.4521 7.8611H20.6606L21.0879 6.69153H23.7785L24.0383 7.8611H25.9869L24.2869 0.135808H22.5118ZM22.7991 2.22294L23.4537 5.12185H21.6999L22.7991 2.22294Z" fill="#1434CB"/>
</g>
<defs>
<clipPath id="clip0_1558_6555">
<rect width="26" height="8" fill="white"/>
</clipPath>
</defs>
</svg>
