<svg width="20" height="20" viewBox="0 0 20 20" fill="none" xmlns="http://www.w3.org/2000/svg">
<path d="M6.66665 11.6667L4.99998 11.6667C4.55795 11.6667 4.13403 11.4911 3.82147 11.1785C3.50891 10.866 3.33331 10.442 3.33331 10L3.33331 4.16667C3.33331 3.72464 3.50891 3.30072 3.82147 2.98816C4.13403 2.67559 4.55795 2.5 4.99998 2.5L15 2.5C15.442 2.5 15.8659 2.6756 16.1785 2.98816C16.4911 3.30072 16.6666 3.72464 16.6666 4.16667L16.6666 10C16.6666 10.442 16.4911 10.866 16.1785 11.1785C15.8659 11.4911 15.442 11.6667 15 11.6667L13.3333 11.6667" stroke="white" stroke-width="1.5" stroke-linecap="round" stroke-linejoin="round"/>
<path d="M10 5.83301L10 17.4997L7.5 14.9997M12.5 14.9997L10 17.4997" stroke="white" stroke-width="1.5" stroke-linecap="round" stroke-linejoin="round"/>
</svg>
